<svg width="287" height="58" viewBox="0 0 287 58" fill="none" xmlns="http://www.w3.org/2000/svg">
<rect width="287" height="58" rx="24" fill="#D9D9D9"/>
<path d="M84.5852 22.9091H86.4773L90.9261 33.7756H91.0795L95.5284 22.9091H97.4205V36H95.9375V26.054H95.8097L91.7188 36H90.2869L86.196 26.054H86.0682V36H84.5852V22.9091ZM104.511 36.2045C103.565 36.2045 102.749 35.9957 102.063 35.5781C101.381 35.1562 100.855 34.5682 100.484 33.8139C100.117 33.0554 99.9341 32.1733 99.9341 31.1676C99.9341 30.1619 100.117 29.2756 100.484 28.5085C100.855 27.7372 101.37 27.1364 102.031 26.706C102.695 26.2713 103.471 26.054 104.357 26.054C104.869 26.054 105.374 26.1392 105.872 26.3097C106.371 26.4801 106.825 26.7571 107.234 27.1406C107.643 27.5199 107.969 28.0227 108.212 28.6491C108.455 29.2756 108.576 30.0469 108.576 30.9631V31.6023H101.008V30.2983H107.042C107.042 29.7443 106.931 29.25 106.71 28.8153C106.492 28.3807 106.181 28.0376 105.776 27.7862C105.376 27.5348 104.903 27.4091 104.357 27.4091C103.757 27.4091 103.237 27.5582 102.798 27.8565C102.363 28.1506 102.029 28.5341 101.794 29.0071C101.56 29.4801 101.443 29.9872 101.443 30.5284V31.3977C101.443 32.1392 101.57 32.7678 101.826 33.2834C102.086 33.7947 102.446 34.1847 102.906 34.4531C103.367 34.7173 103.901 34.8494 104.511 34.8494C104.907 34.8494 105.265 34.794 105.585 34.6832C105.909 34.5682 106.188 34.3977 106.422 34.1719C106.656 33.9418 106.838 33.6562 106.965 33.3153L108.423 33.7244C108.269 34.2188 108.012 34.6534 107.649 35.0284C107.287 35.3991 106.84 35.6889 106.307 35.8977C105.774 36.1023 105.176 36.2045 104.511 36.2045ZM112.379 30.0938V36H110.871V26.1818H112.328V27.7159H112.456C112.686 27.2173 113.036 26.8168 113.504 26.5142C113.973 26.2074 114.578 26.054 115.32 26.054C115.985 26.054 116.566 26.1903 117.065 26.4631C117.563 26.7315 117.951 27.1406 118.228 27.6903C118.505 28.2358 118.644 28.9261 118.644 29.7614V36H117.135V29.8636C117.135 29.0923 116.935 28.4915 116.534 28.0611C116.134 27.6264 115.584 27.4091 114.885 27.4091C114.404 27.4091 113.973 27.5135 113.594 27.7223C113.219 27.9311 112.923 28.2358 112.705 28.6364C112.488 29.0369 112.379 29.5227 112.379 30.0938ZM127.588 31.9858V26.1818H129.096V36H127.588V34.3381H127.485C127.255 34.8366 126.897 35.2607 126.412 35.6101C125.926 35.9553 125.312 36.1278 124.571 36.1278C123.957 36.1278 123.412 35.9936 122.934 35.7251C122.457 35.4524 122.082 35.0433 121.809 34.4979C121.537 33.9482 121.4 33.2557 121.4 32.4205V26.1818H122.909V32.3182C122.909 33.0341 123.109 33.6051 123.51 34.0312C123.914 34.4574 124.43 34.6705 125.056 34.6705C125.431 34.6705 125.813 34.5746 126.201 34.3828C126.593 34.1911 126.921 33.897 127.185 33.5007C127.453 33.1044 127.588 32.5994 127.588 31.9858ZM137.126 36V22.9091H141.55C142.577 22.9091 143.416 23.0945 144.068 23.4652C144.724 23.8317 145.21 24.3281 145.525 24.9545C145.841 25.581 145.998 26.2798 145.998 27.0511C145.998 27.8224 145.841 28.5234 145.525 29.1541C145.214 29.7848 144.733 30.2876 144.081 30.6626C143.429 31.0334 142.594 31.2188 141.575 31.2188H138.405V29.8125H141.524C142.227 29.8125 142.792 29.6911 143.218 29.4482C143.644 29.2053 143.953 28.8771 144.145 28.4638C144.341 28.0462 144.439 27.5753 144.439 27.0511C144.439 26.527 144.341 26.0582 144.145 25.6449C143.953 25.2315 143.642 24.9077 143.211 24.6733C142.781 24.4347 142.21 24.3153 141.498 24.3153H138.711V36H137.126ZM151.237 36.2301C150.615 36.2301 150.05 36.1129 149.543 35.8786C149.036 35.6399 148.633 35.2969 148.335 34.8494C148.036 34.3977 147.887 33.8523 147.887 33.2131C147.887 32.6506 147.998 32.1946 148.22 31.8452C148.441 31.4915 148.737 31.2145 149.108 31.0142C149.479 30.8139 149.888 30.6648 150.335 30.5668C150.787 30.4645 151.241 30.3835 151.697 30.3239C152.294 30.2472 152.777 30.1896 153.148 30.1513C153.523 30.1087 153.796 30.0384 153.966 29.9403C154.141 29.8423 154.228 29.6719 154.228 29.429V29.3778C154.228 28.7472 154.056 28.2571 153.71 27.9077C153.369 27.5582 152.852 27.3835 152.157 27.3835C151.437 27.3835 150.872 27.5412 150.463 27.8565C150.054 28.1719 149.767 28.5085 149.6 28.8665L148.169 28.3551C148.424 27.7585 148.765 27.294 149.191 26.9616C149.622 26.625 150.09 26.3906 150.597 26.2585C151.109 26.1222 151.612 26.054 152.106 26.054C152.421 26.054 152.784 26.0923 153.193 26.169C153.606 26.2415 154.004 26.3928 154.388 26.6229C154.776 26.853 155.097 27.2003 155.353 27.6648C155.609 28.1293 155.737 28.7514 155.737 29.5312V36H154.228V34.6705H154.151C154.049 34.8835 153.879 35.1115 153.64 35.3544C153.401 35.5973 153.084 35.804 152.688 35.9744C152.291 36.1449 151.808 36.2301 151.237 36.2301ZM151.467 34.875C152.063 34.875 152.566 34.7578 152.975 34.5234C153.389 34.2891 153.7 33.9865 153.909 33.6158C154.122 33.245 154.228 32.8551 154.228 32.446V31.0653C154.164 31.142 154.024 31.2124 153.806 31.2763C153.593 31.3359 153.346 31.3892 153.065 31.4361C152.788 31.4787 152.517 31.517 152.253 31.5511C151.993 31.581 151.782 31.6065 151.62 31.6278C151.228 31.679 150.862 31.7621 150.521 31.8771C150.184 31.9879 149.911 32.1562 149.703 32.3821C149.498 32.6037 149.396 32.9062 149.396 33.2898C149.396 33.8139 149.59 34.2102 149.977 34.4787C150.369 34.7429 150.866 34.875 151.467 34.875ZM158.49 36V26.1818H159.947V27.6648H160.05C160.229 27.179 160.553 26.7848 161.021 26.4822C161.49 26.1797 162.018 26.0284 162.607 26.0284C162.717 26.0284 162.856 26.0305 163.022 26.0348C163.188 26.0391 163.314 26.0455 163.399 26.054V27.5881C163.348 27.5753 163.231 27.5561 163.048 27.5305C162.869 27.5007 162.679 27.4858 162.479 27.4858C162.001 27.4858 161.575 27.5859 161.2 27.7862C160.83 27.9822 160.536 28.255 160.318 28.6044C160.105 28.9496 159.999 29.3437 159.999 29.7869V36H158.49ZM170.072 26.1818V27.4602H164.984V26.1818H170.072ZM166.467 23.8295H167.976V33.1875C167.976 33.6136 168.038 33.9332 168.161 34.1463C168.289 34.3551 168.451 34.4957 168.647 34.5682C168.847 34.6364 169.058 34.6705 169.28 34.6705C169.446 34.6705 169.582 34.6619 169.689 34.6449C169.795 34.6236 169.881 34.6065 169.945 34.5938L170.251 35.9489C170.149 35.9872 170.006 36.0256 169.823 36.0639C169.64 36.1065 169.408 36.1278 169.126 36.1278C168.7 36.1278 168.283 36.0362 167.874 35.853C167.469 35.6697 167.132 35.3906 166.864 35.0156C166.599 34.6406 166.467 34.1676 166.467 33.5966V23.8295ZM172.342 36V26.1818H173.85V36H172.342ZM173.109 24.5455C172.815 24.5455 172.561 24.4453 172.348 24.245C172.139 24.0447 172.035 23.804 172.035 23.5227C172.035 23.2415 172.139 23.0007 172.348 22.8004C172.561 22.6001 172.815 22.5 173.109 22.5C173.403 22.5 173.654 22.6001 173.863 22.8004C174.076 23.0007 174.183 23.2415 174.183 23.5227C174.183 23.804 174.076 24.0447 173.863 24.245C173.654 24.4453 173.403 24.5455 173.109 24.5455ZM180.32 36.2045C179.502 36.2045 178.78 35.9979 178.154 35.5845C177.527 35.1669 177.037 34.5788 176.683 33.8203C176.33 33.0575 176.153 32.1562 176.153 31.1165C176.153 30.0852 176.33 29.1903 176.683 28.4318C177.037 27.6733 177.529 27.0874 178.16 26.674C178.791 26.2607 179.519 26.054 180.346 26.054C180.985 26.054 181.49 26.1605 181.861 26.3736C182.236 26.5824 182.521 26.821 182.718 27.0895C182.918 27.3537 183.073 27.571 183.184 27.7415H183.312V22.9091H184.82V36H183.363V34.4915H183.184C183.073 34.6705 182.916 34.8963 182.711 35.169C182.507 35.4375 182.215 35.6783 181.835 35.8913C181.456 36.1001 180.951 36.2045 180.32 36.2045ZM180.525 34.8494C181.13 34.8494 181.642 34.6918 182.059 34.3764C182.477 34.0568 182.794 33.6158 183.012 33.0533C183.229 32.4865 183.338 31.8324 183.338 31.0909C183.338 30.358 183.231 29.7166 183.018 29.1669C182.805 28.6129 182.49 28.1825 182.072 27.8757C181.654 27.5646 181.139 27.4091 180.525 27.4091C179.886 27.4091 179.353 27.5732 178.927 27.9013C178.505 28.2251 178.188 28.6662 177.975 29.2244C177.766 29.7784 177.661 30.4006 177.661 31.0909C177.661 31.7898 177.768 32.4247 177.981 32.9957C178.198 33.5625 178.518 34.0142 178.94 34.3509C179.366 34.6832 179.894 34.8494 180.525 34.8494ZM190.682 36.2301C190.06 36.2301 189.495 36.1129 188.988 35.8786C188.481 35.6399 188.078 35.2969 187.78 34.8494C187.482 34.3977 187.333 33.8523 187.333 33.2131C187.333 32.6506 187.443 32.1946 187.665 31.8452C187.887 31.4915 188.183 31.2145 188.553 31.0142C188.924 30.8139 189.333 30.6648 189.781 30.5668C190.232 30.4645 190.686 30.3835 191.142 30.3239C191.739 30.2472 192.222 30.1896 192.593 30.1513C192.968 30.1087 193.241 30.0384 193.411 29.9403C193.586 29.8423 193.673 29.6719 193.673 29.429V29.3778C193.673 28.7472 193.501 28.2571 193.156 27.9077C192.815 27.5582 192.297 27.3835 191.602 27.3835C190.882 27.3835 190.318 27.5412 189.909 27.8565C189.499 28.1719 189.212 28.5085 189.046 28.8665L187.614 28.3551C187.869 27.7585 188.21 27.294 188.637 26.9616C189.067 26.625 189.536 26.3906 190.043 26.2585C190.554 26.1222 191.057 26.054 191.551 26.054C191.867 26.054 192.229 26.0923 192.638 26.169C193.051 26.2415 193.45 26.3928 193.833 26.6229C194.221 26.853 194.543 27.2003 194.798 27.6648C195.054 28.1293 195.182 28.7514 195.182 29.5312V36H193.673V34.6705H193.597C193.494 34.8835 193.324 35.1115 193.085 35.3544C192.847 35.5973 192.529 35.804 192.133 35.9744C191.737 36.1449 191.253 36.2301 190.682 36.2301ZM190.912 34.875C191.509 34.875 192.012 34.7578 192.421 34.5234C192.834 34.2891 193.145 33.9865 193.354 33.6158C193.567 33.245 193.673 32.8551 193.673 32.446V31.0653C193.61 31.142 193.469 31.2124 193.252 31.2763C193.039 31.3359 192.791 31.3892 192.51 31.4361C192.233 31.4787 191.963 31.517 191.698 31.5511C191.438 31.581 191.227 31.6065 191.066 31.6278C190.673 31.679 190.307 31.7621 189.966 31.8771C189.629 31.9879 189.357 32.1562 189.148 32.3821C188.943 32.6037 188.841 32.9062 188.841 33.2898C188.841 33.8139 189.035 34.2102 189.423 34.4787C189.815 34.7429 190.311 34.875 190.912 34.875ZM204.89 28.3807L203.535 28.7642C203.45 28.5384 203.324 28.3189 203.158 28.1058C202.996 27.8885 202.774 27.7095 202.493 27.5689C202.212 27.4283 201.852 27.358 201.413 27.358C200.812 27.358 200.311 27.4964 199.911 27.7734C199.514 28.0462 199.316 28.3935 199.316 28.8153C199.316 29.1903 199.452 29.4865 199.725 29.7038C199.998 29.9212 200.424 30.1023 201.004 30.2472L202.461 30.6051C203.339 30.8182 203.993 31.1442 204.423 31.5831C204.854 32.0178 205.069 32.5781 205.069 33.2642C205.069 33.8267 204.907 34.3295 204.583 34.7727C204.263 35.2159 203.816 35.5653 203.241 35.821C202.665 36.0767 201.996 36.2045 201.234 36.2045C200.232 36.2045 199.403 35.9872 198.747 35.5526C198.091 35.1179 197.675 34.483 197.501 33.6477L198.933 33.2898C199.069 33.8182 199.327 34.2145 199.706 34.4787C200.089 34.7429 200.59 34.875 201.208 34.875C201.911 34.875 202.469 34.7259 202.883 34.4276C203.3 34.125 203.509 33.7628 203.509 33.3409C203.509 33 203.39 32.7145 203.151 32.4844C202.913 32.25 202.546 32.0753 202.052 31.9602L200.415 31.5767C199.516 31.3636 198.856 31.0334 198.434 30.5859C198.016 30.1342 197.808 29.5696 197.808 28.892C197.808 28.3381 197.963 27.848 198.274 27.4219C198.589 26.9957 199.018 26.6612 199.559 26.4183C200.104 26.1754 200.722 26.054 201.413 26.054C202.384 26.054 203.147 26.267 203.701 26.6932C204.259 27.1193 204.656 27.6818 204.89 28.3807Z" fill="black"/>
</svg>
