<svg width="287" height="58" viewBox="0 0 287 58" fill="none" xmlns="http://www.w3.org/2000/svg">
<rect width="287" height="58" rx="24" fill="#D9D9D9"/>
<path d="M74.5852 22.9091H76.4773L80.9261 33.7756H81.0795L85.5284 22.9091H87.4205V36H85.9375V26.054H85.8097L81.7188 36H80.2869L76.196 26.054H76.0682V36H74.5852V22.9091ZM94.5108 36.2045C93.5648 36.2045 92.7488 35.9957 92.0627 35.5781C91.3809 35.1562 90.8546 34.5682 90.4838 33.8139C90.1174 33.0554 89.9341 32.1733 89.9341 31.1676C89.9341 30.1619 90.1174 29.2756 90.4838 28.5085C90.8546 27.7372 91.3702 27.1364 92.0307 26.706C92.6955 26.2713 93.4711 26.054 94.3574 26.054C94.8688 26.054 95.3738 26.1392 95.8723 26.3097C96.3709 26.4801 96.8248 26.7571 97.2338 27.1406C97.6429 27.5199 97.9689 28.0227 98.2118 28.6491C98.4547 29.2756 98.5762 30.0469 98.5762 30.9631V31.6023H91.008V30.2983H97.0421C97.0421 29.7443 96.9313 29.25 96.7097 28.8153C96.4924 28.3807 96.1813 28.0376 95.7765 27.7862C95.3759 27.5348 94.9029 27.4091 94.3574 27.4091C93.7566 27.4091 93.2367 27.5582 92.7978 27.8565C92.3631 28.1506 92.0286 28.5341 91.7942 29.0071C91.5598 29.4801 91.4426 29.9872 91.4426 30.5284V31.3977C91.4426 32.1392 91.5705 32.7678 91.8262 33.2834C92.0861 33.7947 92.4462 34.1847 92.9064 34.4531C93.3667 34.7173 93.9015 34.8494 94.5108 34.8494C94.9071 34.8494 95.2651 34.794 95.5847 34.6832C95.9086 34.5682 96.1877 34.3977 96.4221 34.1719C96.6564 33.9418 96.8375 33.6562 96.9654 33.3153L98.4228 33.7244C98.2694 34.2188 98.0115 34.6534 97.6493 35.0284C97.2871 35.3991 96.8397 35.6889 96.307 35.8977C95.7743 36.1023 95.1756 36.2045 94.5108 36.2045ZM102.379 30.0938V36H100.871V26.1818H102.328V27.7159H102.456C102.686 27.2173 103.036 26.8168 103.504 26.5142C103.973 26.2074 104.578 26.054 105.32 26.054C105.985 26.054 106.566 26.1903 107.065 26.4631C107.563 26.7315 107.951 27.1406 108.228 27.6903C108.505 28.2358 108.644 28.9261 108.644 29.7614V36H107.135V29.8636C107.135 29.0923 106.935 28.4915 106.534 28.0611C106.134 27.6264 105.584 27.4091 104.885 27.4091C104.404 27.4091 103.973 27.5135 103.594 27.7223C103.219 27.9311 102.923 28.2358 102.705 28.6364C102.488 29.0369 102.379 29.5227 102.379 30.0938ZM117.588 31.9858V26.1818H119.096V36H117.588V34.3381H117.485C117.255 34.8366 116.897 35.2607 116.412 35.6101C115.926 35.9553 115.312 36.1278 114.571 36.1278C113.957 36.1278 113.412 35.9936 112.934 35.7251C112.457 35.4524 112.082 35.0433 111.809 34.4979C111.537 33.9482 111.4 33.2557 111.4 32.4205V26.1818H112.909V32.3182C112.909 33.0341 113.109 33.6051 113.51 34.0312C113.914 34.4574 114.43 34.6705 115.056 34.6705C115.431 34.6705 115.813 34.5746 116.201 34.3828C116.593 34.1911 116.921 33.897 117.185 33.5007C117.453 33.1044 117.588 32.5994 117.588 31.9858ZM130.629 36.2045C129.811 36.2045 129.089 35.9979 128.462 35.5845C127.836 35.1669 127.346 34.5788 126.992 33.8203C126.638 33.0575 126.461 32.1562 126.461 31.1165C126.461 30.0852 126.638 29.1903 126.992 28.4318C127.346 27.6733 127.838 27.0874 128.469 26.674C129.099 26.2607 129.828 26.054 130.655 26.054C131.294 26.054 131.799 26.1605 132.17 26.3736C132.545 26.5824 132.83 26.821 133.026 27.0895C133.226 27.3537 133.382 27.571 133.493 27.7415H133.621V22.9091H135.129V36H133.672V34.4915H133.493C133.382 34.6705 133.224 34.8963 133.02 35.169C132.815 35.4375 132.523 35.6783 132.144 35.8913C131.765 36.1001 131.26 36.2045 130.629 36.2045ZM130.834 34.8494C131.439 34.8494 131.95 34.6918 132.368 34.3764C132.785 34.0568 133.103 33.6158 133.32 33.0533C133.537 32.4865 133.646 31.8324 133.646 31.0909C133.646 30.358 133.54 29.7166 133.327 29.1669C133.113 28.6129 132.798 28.1825 132.381 27.8757C131.963 27.5646 131.447 27.4091 130.834 27.4091C130.194 27.4091 129.662 27.5732 129.236 27.9013C128.814 28.2251 128.496 28.6662 128.283 29.2244C128.074 29.7784 127.97 30.4006 127.97 31.0909C127.97 31.7898 128.077 32.4247 128.29 32.9957C128.507 33.5625 128.827 34.0142 129.248 34.3509C129.675 34.6832 130.203 34.8494 130.834 34.8494ZM142.218 36.2045C141.272 36.2045 140.456 35.9957 139.77 35.5781C139.088 35.1562 138.562 34.5682 138.191 33.8139C137.824 33.0554 137.641 32.1733 137.641 31.1676C137.641 30.1619 137.824 29.2756 138.191 28.5085C138.562 27.7372 139.077 27.1364 139.738 26.706C140.403 26.2713 141.178 26.054 142.064 26.054C142.576 26.054 143.081 26.1392 143.579 26.3097C144.078 26.4801 144.532 26.7571 144.941 27.1406C145.35 27.5199 145.676 28.0227 145.919 28.6491C146.162 29.2756 146.283 30.0469 146.283 30.9631V31.6023H138.715V30.2983H144.749C144.749 29.7443 144.638 29.25 144.417 28.8153C144.199 28.3807 143.888 28.0376 143.483 27.7862C143.083 27.5348 142.61 27.4091 142.064 27.4091C141.464 27.4091 140.944 27.5582 140.505 27.8565C140.07 28.1506 139.736 28.5341 139.501 29.0071C139.267 29.4801 139.15 29.9872 139.15 30.5284V31.3977C139.15 32.1392 139.278 32.7678 139.533 33.2834C139.793 33.7947 140.153 34.1847 140.613 34.4531C141.074 34.7173 141.608 34.8494 142.218 34.8494C142.614 34.8494 142.972 34.794 143.292 34.6832C143.616 34.5682 143.895 34.3977 144.129 34.1719C144.363 33.9418 144.545 33.6562 144.672 33.3153L146.13 33.7244C145.976 34.2188 145.719 34.6534 145.356 35.0284C144.994 35.3991 144.547 35.6889 144.014 35.8977C143.481 36.1023 142.883 36.2045 142.218 36.2045ZM153.129 24.3153V22.9091H162.947V24.3153H158.831V36H157.246V24.3153H153.129ZM165.189 36V26.1818H166.698V36H165.189ZM165.956 24.5455C165.662 24.5455 165.409 24.4453 165.196 24.245C164.987 24.0447 164.882 23.804 164.882 23.5227C164.882 23.2415 164.987 23.0007 165.196 22.8004C165.409 22.6001 165.662 22.5 165.956 22.5C166.25 22.5 166.502 22.6001 166.711 22.8004C166.924 23.0007 167.03 23.2415 167.03 23.5227C167.03 23.804 166.924 24.0447 166.711 24.245C166.502 24.4453 166.25 24.5455 165.956 24.5455ZM169.461 36V26.1818H170.918V27.7159H171.046C171.251 27.1918 171.581 26.7848 172.037 26.495C172.493 26.201 173.04 26.054 173.68 26.054C174.327 26.054 174.866 26.201 175.297 26.495C175.731 26.7848 176.07 27.1918 176.313 27.7159H176.415C176.667 27.2088 177.044 26.8061 177.547 26.5078C178.05 26.2053 178.653 26.054 179.356 26.054C180.233 26.054 180.952 26.3288 181.51 26.8786C182.068 27.424 182.347 28.2741 182.347 29.429V36H180.839V29.429C180.839 28.7045 180.64 28.1868 180.244 27.8757C179.848 27.5646 179.381 27.4091 178.844 27.4091C178.154 27.4091 177.619 27.6179 177.24 28.0355C176.861 28.4489 176.671 28.973 176.671 29.608V36H175.137V29.2756C175.137 28.7173 174.956 28.2678 174.594 27.9268C174.231 27.5817 173.765 27.4091 173.194 27.4091C172.802 27.4091 172.435 27.5135 172.094 27.7223C171.758 27.9311 171.485 28.2209 171.276 28.5916C171.072 28.9581 170.969 29.3821 170.969 29.8636V36H169.461ZM189.222 36.2045C188.276 36.2045 187.46 35.9957 186.774 35.5781C186.092 35.1562 185.566 34.5682 185.195 33.8139C184.828 33.0554 184.645 32.1733 184.645 31.1676C184.645 30.1619 184.828 29.2756 185.195 28.5085C185.566 27.7372 186.081 27.1364 186.742 26.706C187.406 26.2713 188.182 26.054 189.068 26.054C189.58 26.054 190.085 26.1392 190.583 26.3097C191.082 26.4801 191.536 26.7571 191.945 27.1406C192.354 27.5199 192.68 28.0227 192.923 28.6491C193.166 29.2756 193.287 30.0469 193.287 30.9631V31.6023H185.719V30.2983H191.753C191.753 29.7443 191.642 29.25 191.421 28.8153C191.203 28.3807 190.892 28.0376 190.487 27.7862C190.087 27.5348 189.614 27.4091 189.068 27.4091C188.468 27.4091 187.948 27.5582 187.509 27.8565C187.074 28.1506 186.74 28.5341 186.505 29.0071C186.271 29.4801 186.154 29.9872 186.154 30.5284V31.3977C186.154 32.1392 186.281 32.7678 186.537 33.2834C186.797 33.7947 187.157 34.1847 187.617 34.4531C188.078 34.7173 188.612 34.8494 189.222 34.8494C189.618 34.8494 189.976 34.794 190.296 34.6832C190.619 34.5682 190.899 34.3977 191.133 34.1719C191.367 33.9418 191.548 33.6562 191.676 33.3153L193.134 33.7244C192.98 34.2188 192.722 34.6534 192.36 35.0284C191.998 35.3991 191.551 35.6889 191.018 35.8977C190.485 36.1023 189.887 36.2045 189.222 36.2045ZM202.536 28.3807L201.181 28.7642C201.096 28.5384 200.97 28.3189 200.804 28.1058C200.642 27.8885 200.421 27.7095 200.139 27.5689C199.858 27.4283 199.498 27.358 199.059 27.358C198.458 27.358 197.958 27.4964 197.557 27.7734C197.161 28.0462 196.963 28.3935 196.963 28.8153C196.963 29.1903 197.099 29.4865 197.372 29.7038C197.644 29.9212 198.07 30.1023 198.65 30.2472L200.107 30.6051C200.985 30.8182 201.639 31.1442 202.07 31.5831C202.5 32.0178 202.715 32.5781 202.715 33.2642C202.715 33.8267 202.553 34.3295 202.23 34.7727C201.91 35.2159 201.463 35.5653 200.887 35.821C200.312 36.0767 199.643 36.2045 198.88 36.2045C197.879 36.2045 197.05 35.9872 196.394 35.5526C195.737 35.1179 195.322 34.483 195.147 33.6477L196.579 33.2898C196.715 33.8182 196.973 34.2145 197.352 34.4787C197.736 34.7429 198.237 34.875 198.855 34.875C199.558 34.875 200.116 34.7259 200.529 34.4276C200.947 34.125 201.156 33.7628 201.156 33.3409C201.156 33 201.036 32.7145 200.798 32.4844C200.559 32.25 200.193 32.0753 199.698 31.9602L198.062 31.5767C197.163 31.3636 196.502 31.0334 196.08 30.5859C195.663 30.1342 195.454 29.5696 195.454 28.892C195.454 28.3381 195.61 27.848 195.921 27.4219C196.236 26.9957 196.664 26.6612 197.205 26.4183C197.751 26.1754 198.369 26.054 199.059 26.054C200.031 26.054 200.794 26.267 201.347 26.6932C201.906 27.1193 202.302 27.6818 202.536 28.3807Z" fill="black"/>
</svg>
