<svg width="287" height="58" viewBox="0 0 287 58" fill="none" xmlns="http://www.w3.org/2000/svg">
<rect width="287" height="58" rx="24" fill="#D9D9D9"/>
<path d="M64.5852 22.9091H66.4773L70.9261 33.7756H71.0795L75.5284 22.9091H77.4205V36H75.9375V26.054H75.8097L71.7188 36H70.2869L66.196 26.054H66.0682V36H64.5852V22.9091ZM84.5108 36.2045C83.5648 36.2045 82.7488 35.9957 82.0627 35.5781C81.3809 35.1562 80.8546 34.5682 80.4838 33.8139C80.1174 33.0554 79.9341 32.1733 79.9341 31.1676C79.9341 30.1619 80.1174 29.2756 80.4838 28.5085C80.8546 27.7372 81.3702 27.1364 82.0307 26.706C82.6955 26.2713 83.4711 26.054 84.3574 26.054C84.8688 26.054 85.3738 26.1392 85.8723 26.3097C86.3709 26.4801 86.8248 26.7571 87.2338 27.1406C87.6429 27.5199 87.9689 28.0227 88.2118 28.6491C88.4547 29.2756 88.5762 30.0469 88.5762 30.9631V31.6023H81.008V30.2983H87.0421C87.0421 29.7443 86.9313 29.25 86.7097 28.8153C86.4924 28.3807 86.1813 28.0376 85.7765 27.7862C85.3759 27.5348 84.9029 27.4091 84.3574 27.4091C83.7566 27.4091 83.2367 27.5582 82.7978 27.8565C82.3631 28.1506 82.0286 28.5341 81.7942 29.0071C81.5598 29.4801 81.4426 29.9872 81.4426 30.5284V31.3977C81.4426 32.1392 81.5705 32.7678 81.8262 33.2834C82.0861 33.7947 82.4462 34.1847 82.9064 34.4531C83.3667 34.7173 83.9015 34.8494 84.5108 34.8494C84.9071 34.8494 85.2651 34.794 85.5847 34.6832C85.9086 34.5682 86.1877 34.3977 86.4221 34.1719C86.6564 33.9418 86.8375 33.6562 86.9654 33.3153L88.4228 33.7244C88.2694 34.2188 88.0115 34.6534 87.6493 35.0284C87.2871 35.3991 86.8397 35.6889 86.307 35.8977C85.7743 36.1023 85.1756 36.2045 84.5108 36.2045ZM92.3794 30.0938V36H90.8709V26.1818H92.3283V27.7159H92.4561C92.6863 27.2173 93.0357 26.8168 93.5044 26.5142C93.9732 26.2074 94.5783 26.054 95.3198 26.054C95.9846 26.054 96.5662 26.1903 97.0648 26.4631C97.5634 26.7315 97.9512 27.1406 98.2282 27.6903C98.5051 28.2358 98.6436 28.9261 98.6436 29.7614V36H97.1351V29.8636C97.1351 29.0923 96.9348 28.4915 96.5343 28.0611C96.1337 27.6264 95.584 27.4091 94.8851 27.4091C94.4036 27.4091 93.9732 27.5135 93.5939 27.7223C93.2189 27.9311 92.9228 28.2358 92.7054 28.6364C92.4881 29.0369 92.3794 29.5227 92.3794 30.0938ZM107.588 31.9858V26.1818H109.096V36H107.588V34.3381H107.485C107.255 34.8366 106.897 35.2607 106.412 35.6101C105.926 35.9553 105.312 36.1278 104.571 36.1278C103.957 36.1278 103.412 35.9936 102.934 35.7251C102.457 35.4524 102.082 35.0433 101.809 34.4979C101.537 33.9482 101.4 33.2557 101.4 32.4205V26.1818H102.909V32.3182C102.909 33.0341 103.109 33.6051 103.51 34.0312C103.914 34.4574 104.43 34.6705 105.056 34.6705C105.431 34.6705 105.813 34.5746 106.201 34.3828C106.593 34.1911 106.921 33.897 107.185 33.5007C107.453 33.1044 107.588 32.5994 107.588 31.9858ZM120.629 36.2045C119.811 36.2045 119.089 35.9979 118.462 35.5845C117.836 35.1669 117.346 34.5788 116.992 33.8203C116.638 33.0575 116.461 32.1562 116.461 31.1165C116.461 30.0852 116.638 29.1903 116.992 28.4318C117.346 27.6733 117.838 27.0874 118.469 26.674C119.099 26.2607 119.828 26.054 120.655 26.054C121.294 26.054 121.799 26.1605 122.17 26.3736C122.545 26.5824 122.83 26.821 123.026 27.0895C123.226 27.3537 123.382 27.571 123.493 27.7415H123.621V22.9091H125.129V36H123.672V34.4915H123.493C123.382 34.6705 123.224 34.8963 123.02 35.169C122.815 35.4375 122.523 35.6783 122.144 35.8913C121.765 36.1001 121.26 36.2045 120.629 36.2045ZM120.834 34.8494C121.439 34.8494 121.95 34.6918 122.368 34.3764C122.785 34.0568 123.103 33.6158 123.32 33.0533C123.537 32.4865 123.646 31.8324 123.646 31.0909C123.646 30.358 123.54 29.7166 123.327 29.1669C123.113 28.6129 122.798 28.1825 122.381 27.8757C121.963 27.5646 121.447 27.4091 120.834 27.4091C120.194 27.4091 119.662 27.5732 119.236 27.9013C118.814 28.2251 118.496 28.6662 118.283 29.2244C118.074 29.7784 117.97 30.4006 117.97 31.0909C117.97 31.7898 118.077 32.4247 118.29 32.9957C118.507 33.5625 118.827 34.0142 119.248 34.3509C119.675 34.6832 120.203 34.8494 120.834 34.8494ZM132.218 36.2045C131.272 36.2045 130.456 35.9957 129.77 35.5781C129.088 35.1562 128.562 34.5682 128.191 33.8139C127.824 33.0554 127.641 32.1733 127.641 31.1676C127.641 30.1619 127.824 29.2756 128.191 28.5085C128.562 27.7372 129.077 27.1364 129.738 26.706C130.403 26.2713 131.178 26.054 132.064 26.054C132.576 26.054 133.081 26.1392 133.579 26.3097C134.078 26.4801 134.532 26.7571 134.941 27.1406C135.35 27.5199 135.676 28.0227 135.919 28.6491C136.162 29.2756 136.283 30.0469 136.283 30.9631V31.6023H128.715V30.2983H134.749C134.749 29.7443 134.638 29.25 134.417 28.8153C134.199 28.3807 133.888 28.0376 133.483 27.7862C133.083 27.5348 132.61 27.4091 132.064 27.4091C131.464 27.4091 130.944 27.5582 130.505 27.8565C130.07 28.1506 129.736 28.5341 129.501 29.0071C129.267 29.4801 129.15 29.9872 129.15 30.5284V31.3977C129.15 32.1392 129.278 32.7678 129.533 33.2834C129.793 33.7947 130.153 34.1847 130.613 34.4531C131.074 34.7173 131.608 34.8494 132.218 34.8494C132.614 34.8494 132.972 34.794 133.292 34.6832C133.616 34.5682 133.895 34.3977 134.129 34.1719C134.363 33.9418 134.545 33.6562 134.672 33.3153L136.13 33.7244C135.976 34.2188 135.719 34.6534 135.356 35.0284C134.994 35.3991 134.547 35.6889 134.014 35.8977C133.481 36.1023 132.883 36.2045 132.218 36.2045ZM148.856 22.9091H150.442V32.267C150.442 33.1023 150.288 33.8118 149.981 34.3956C149.675 34.9794 149.242 35.4226 148.684 35.7251C148.126 36.0277 147.467 36.179 146.709 36.179C145.993 36.179 145.356 36.049 144.797 35.7891C144.239 35.5249 143.8 35.1499 143.481 34.6641C143.161 34.1783 143.001 33.6009 143.001 32.9318H144.561C144.561 33.3026 144.653 33.6264 144.836 33.9034C145.023 34.1761 145.279 34.3892 145.603 34.5426C145.927 34.696 146.295 34.7727 146.709 34.7727C147.165 34.7727 147.552 34.6768 147.872 34.4851C148.192 34.2933 148.434 34.0121 148.601 33.6413C148.771 33.2663 148.856 32.8082 148.856 32.267V22.9091ZM157.403 36.2045C156.516 36.2045 155.738 35.9936 155.069 35.5717C154.405 35.1499 153.885 34.5597 153.51 33.8011C153.139 33.0426 152.954 32.1562 152.954 31.142C152.954 30.1193 153.139 29.2266 153.51 28.4638C153.885 27.701 154.405 27.1087 155.069 26.6868C155.738 26.2649 156.516 26.054 157.403 26.054C158.289 26.054 159.064 26.2649 159.729 26.6868C160.398 27.1087 160.918 27.701 161.289 28.4638C161.664 29.2266 161.851 30.1193 161.851 31.142C161.851 32.1562 161.664 33.0426 161.289 33.8011C160.918 34.5597 160.398 35.1499 159.729 35.5717C159.064 35.9936 158.289 36.2045 157.403 36.2045ZM157.403 34.8494C158.076 34.8494 158.63 34.6768 159.064 34.3317C159.499 33.9865 159.821 33.5327 160.03 32.9702C160.238 32.4077 160.343 31.7983 160.343 31.142C160.343 30.4858 160.238 29.8743 160.03 29.3075C159.821 28.7408 159.499 28.2827 159.064 27.9332C158.63 27.5838 158.076 27.4091 157.403 27.4091C156.729 27.4091 156.175 27.5838 155.741 27.9332C155.306 28.2827 154.984 28.7408 154.775 29.3075C154.567 29.8743 154.462 30.4858 154.462 31.142C154.462 31.7983 154.567 32.4077 154.775 32.9702C154.984 33.5327 155.306 33.9865 155.741 34.3317C156.175 34.6768 156.729 34.8494 157.403 34.8494ZM168.117 39.8864C167.388 39.8864 166.762 39.7926 166.238 39.6051C165.714 39.4219 165.277 39.179 164.928 38.8764C164.582 38.5781 164.308 38.2585 164.103 37.9176L165.305 37.0739C165.441 37.2528 165.614 37.4574 165.822 37.6875C166.031 37.9219 166.317 38.1243 166.679 38.2947C167.045 38.4695 167.525 38.5568 168.117 38.5568C168.91 38.5568 169.564 38.3651 170.08 37.9815C170.595 37.598 170.853 36.9972 170.853 36.179V34.1847H170.725C170.614 34.3636 170.457 34.5852 170.252 34.8494C170.052 35.1094 169.762 35.3416 169.383 35.5462C169.008 35.7464 168.501 35.8466 167.862 35.8466C167.069 35.8466 166.357 35.6591 165.727 35.2841C165.1 34.9091 164.604 34.3636 164.237 33.6477C163.875 32.9318 163.694 32.0625 163.694 31.0398C163.694 30.0341 163.871 29.1584 164.224 28.4126C164.578 27.6626 165.07 27.0831 165.701 26.674C166.332 26.2607 167.06 26.054 167.887 26.054C168.526 26.054 169.033 26.1605 169.408 26.3736C169.788 26.5824 170.077 26.821 170.278 27.0895C170.482 27.3537 170.64 27.571 170.751 27.7415H170.904V26.1818H172.362V36.2812C172.362 37.125 172.17 37.8111 171.786 38.3395C171.407 38.8722 170.896 39.2621 170.252 39.5092C169.613 39.7607 168.901 39.8864 168.117 39.8864ZM168.066 34.4915C168.671 34.4915 169.183 34.353 169.6 34.076C170.018 33.799 170.335 33.4006 170.553 32.8807C170.77 32.3608 170.879 31.7386 170.879 31.0142C170.879 30.3068 170.772 29.6825 170.559 29.1413C170.346 28.6001 170.031 28.1761 169.613 27.8693C169.195 27.5625 168.68 27.4091 168.066 27.4091C167.427 27.4091 166.894 27.571 166.468 27.8949C166.046 28.2187 165.729 28.6534 165.516 29.1989C165.307 29.7443 165.202 30.3494 165.202 31.0142C165.202 31.696 165.309 32.299 165.522 32.8232C165.739 33.343 166.059 33.7521 166.481 34.0504C166.907 34.3445 167.435 34.4915 168.066 34.4915ZM178.012 36.2301C177.39 36.2301 176.825 36.1129 176.318 35.8786C175.811 35.6399 175.408 35.2969 175.11 34.8494C174.812 34.3977 174.663 33.8523 174.663 33.2131C174.663 32.6506 174.773 32.1946 174.995 31.8452C175.217 31.4915 175.513 31.2145 175.884 31.0142C176.254 30.8139 176.663 30.6648 177.111 30.5668C177.563 30.4645 178.016 30.3835 178.472 30.3239C179.069 30.2472 179.553 30.1896 179.923 30.1513C180.298 30.1087 180.571 30.0384 180.741 29.9403C180.916 29.8423 181.004 29.6719 181.004 29.429V29.3778C181.004 28.7472 180.831 28.2571 180.486 27.9077C180.145 27.5582 179.627 27.3835 178.933 27.3835C178.212 27.3835 177.648 27.5412 177.239 27.8565C176.83 28.1719 176.542 28.5085 176.376 28.8665L174.944 28.3551C175.2 27.7585 175.54 27.294 175.967 26.9616C176.397 26.625 176.866 26.3906 177.373 26.2585C177.884 26.1222 178.387 26.054 178.881 26.054C179.197 26.054 179.559 26.0923 179.968 26.169C180.381 26.2415 180.78 26.3928 181.163 26.6229C181.551 26.853 181.873 27.2003 182.129 27.6648C182.384 28.1293 182.512 28.7514 182.512 29.5312V36H181.004V34.6705H180.927C180.825 34.8835 180.654 35.1115 180.415 35.3544C180.177 35.5973 179.859 35.804 179.463 35.9744C179.067 36.1449 178.583 36.2301 178.012 36.2301ZM178.242 34.875C178.839 34.875 179.342 34.7578 179.751 34.5234C180.164 34.2891 180.475 33.9865 180.684 33.6158C180.897 33.245 181.004 32.8551 181.004 32.446V31.0653C180.94 31.142 180.799 31.2124 180.582 31.2763C180.369 31.3359 180.121 31.3892 179.84 31.4361C179.563 31.4787 179.293 31.517 179.028 31.5511C178.768 31.581 178.558 31.6065 178.396 31.6278C178.004 31.679 177.637 31.7621 177.296 31.8771C176.96 31.9879 176.687 32.1562 176.478 32.3821C176.273 32.6037 176.171 32.9062 176.171 33.2898C176.171 33.8139 176.365 34.2102 176.753 34.4787C177.145 34.7429 177.641 34.875 178.242 34.875ZM188.973 36.2045C188.155 36.2045 187.432 35.9979 186.806 35.5845C186.18 35.1669 185.689 34.5788 185.336 33.8203C184.982 33.0575 184.805 32.1562 184.805 31.1165C184.805 30.0852 184.982 29.1903 185.336 28.4318C185.689 27.6733 186.182 27.0874 186.812 26.674C187.443 26.2607 188.172 26.054 188.998 26.054C189.638 26.054 190.143 26.1605 190.513 26.3736C190.888 26.5824 191.174 26.821 191.37 27.0895C191.57 27.3537 191.726 27.571 191.836 27.7415H191.964V22.9091H193.473V36H192.015V34.4915H191.836C191.726 34.6705 191.568 34.8963 191.363 35.169C191.159 35.4375 190.867 35.6783 190.488 35.8913C190.108 36.1001 189.604 36.2045 188.973 36.2045ZM189.177 34.8494C189.782 34.8494 190.294 34.6918 190.711 34.3764C191.129 34.0568 191.447 33.6158 191.664 33.0533C191.881 32.4865 191.99 31.8324 191.99 31.0909C191.99 30.358 191.883 29.7166 191.67 29.1669C191.457 28.6129 191.142 28.1825 190.724 27.8757C190.307 27.5646 189.791 27.4091 189.177 27.4091C188.538 27.4091 188.006 27.5732 187.579 27.9013C187.157 28.2251 186.84 28.6662 186.627 29.2244C186.418 29.7784 186.314 30.4006 186.314 31.0909C186.314 31.7898 186.42 32.4247 186.633 32.9957C186.851 33.5625 187.17 34.0142 187.592 34.3509C188.018 34.6832 188.547 34.8494 189.177 34.8494ZM200.434 36.2045C199.547 36.2045 198.77 35.9936 198.101 35.5717C197.436 35.1499 196.916 34.5597 196.541 33.8011C196.17 33.0426 195.985 32.1562 195.985 31.142C195.985 30.1193 196.17 29.2266 196.541 28.4638C196.916 27.701 197.436 27.1087 198.101 26.6868C198.77 26.2649 199.547 26.054 200.434 26.054C201.32 26.054 202.096 26.2649 202.76 26.6868C203.43 27.1087 203.949 27.701 204.32 28.4638C204.695 29.2266 204.883 30.1193 204.883 31.142C204.883 32.1562 204.695 33.0426 204.32 33.8011C203.949 34.5597 203.43 35.1499 202.76 35.5717C202.096 35.9936 201.32 36.2045 200.434 36.2045ZM200.434 34.8494C201.107 34.8494 201.661 34.6768 202.096 34.3317C202.53 33.9865 202.852 33.5327 203.061 32.9702C203.27 32.4077 203.374 31.7983 203.374 31.142C203.374 30.4858 203.27 29.8743 203.061 29.3075C202.852 28.7408 202.53 28.2827 202.096 27.9332C201.661 27.5838 201.107 27.4091 200.434 27.4091C199.76 27.4091 199.206 27.5838 198.772 27.9332C198.337 28.2827 198.015 28.7408 197.807 29.3075C197.598 29.8743 197.493 30.4858 197.493 31.142C197.493 31.7983 197.598 32.4077 197.807 32.9702C198.015 33.5327 198.337 33.9865 198.772 34.3317C199.206 34.6768 199.76 34.8494 200.434 34.8494ZM207.185 36V26.1818H208.643V27.6648H208.745C208.924 27.179 209.248 26.7848 209.717 26.4822C210.185 26.1797 210.714 26.0284 211.302 26.0284C211.413 26.0284 211.551 26.0305 211.717 26.0348C211.884 26.0391 212.009 26.0455 212.094 26.054V27.5881C212.043 27.5753 211.926 27.5561 211.743 27.5305C211.564 27.5007 211.374 27.4858 211.174 27.4858C210.697 27.4858 210.271 27.5859 209.896 27.7862C209.525 27.9822 209.231 28.255 209.013 28.6044C208.8 28.9496 208.694 29.3437 208.694 29.7869V36H207.185Z" fill="black"/>
</svg>
